<svg width="1207" height="470" viewBox="0 0 1207 470" fill="none" xmlns="http://www.w3.org/2000/svg">
<circle cx="603.5" cy="246.5" r="331.892" stroke="url(#paint0_linear_4108_1784)" stroke-width="0.669811"/>
<path d="M304.878 545.123C245.816 486.061 205.594 410.811 189.299 328.89C173.004 246.969 181.367 162.055 213.331 84.8867C245.295 7.71853 299.425 -58.2382 368.874 -104.643C438.324 -151.048 519.974 -175.816 603.501 -175.816C687.027 -175.816 768.677 -151.048 838.127 -104.643C907.576 -58.2382 961.706 7.71856 993.67 84.8867C1025.63 162.055 1034 246.969 1017.7 328.89C1001.41 410.811 961.185 486.061 902.123 545.123" stroke="url(#paint1_linear_4108_1784)" stroke-width="0.669811"/>
<path d="M240.937 609.062C169.229 537.354 120.395 445.992 100.611 346.53C80.8267 247.069 90.9807 143.974 129.789 50.2824C168.597 -43.4087 234.316 -123.488 318.636 -179.828C402.956 -236.169 502.089 -266.241 603.499 -266.241C704.91 -266.241 804.043 -236.169 888.363 -179.828C972.682 -123.488 1038.4 -43.4086 1077.21 50.2825C1116.02 143.974 1126.17 247.069 1106.39 346.53C1086.6 445.992 1037.77 537.354 966.062 609.062" stroke="url(#paint2_linear_4108_1784)" stroke-width="0.669811"/>
<path d="M176.998 673.002C92.6437 588.648 35.1978 481.174 11.9245 364.172C-11.3487 247.169 0.595984 125.893 46.2481 15.6787C91.9003 -94.5353 169.209 -188.737 268.399 -255.013C367.589 -321.29 484.205 -356.665 603.5 -356.665C722.795 -356.665 839.411 -321.29 938.601 -255.013C1037.79 -188.737 1115.1 -94.5353 1160.75 15.6787C1206.4 125.893 1218.35 247.169 1195.08 364.172C1171.8 481.174 1114.36 588.648 1030 673.002" stroke="url(#paint3_linear_4108_1784)" stroke-width="0.669811"/>
<defs>
<linearGradient id="paint0_linear_4108_1784" x1="251.748" y1="-85.7266" x2="951.463" y2="-85.7266" gradientUnits="userSpaceOnUse">
<stop stop-color="#7B5CFF" stop-opacity="0.1"/>
<stop offset="0.494792" stop-color="#7B5CFF"/>
<stop offset="1" stop-color="#7B5CFF" stop-opacity="0.1"/>
</linearGradient>
<linearGradient id="paint1_linear_4108_1784" x1="156.01" y1="-176.151" x2="1046.17" y2="-176.151" gradientUnits="userSpaceOnUse">
<stop stop-color="#7B5CFF" stop-opacity="0.1"/>
<stop offset="0.494792" stop-color="#7B5CFF"/>
<stop offset="1" stop-color="#7B5CFF" stop-opacity="0.1"/>
</linearGradient>
<linearGradient id="paint2_linear_4108_1784" x1="60.2694" y1="-266.576" x2="1140.88" y2="-266.576" gradientUnits="userSpaceOnUse">
<stop stop-color="#7B5CFF" stop-opacity="0.1"/>
<stop offset="0.494792" stop-color="#7B5CFF"/>
<stop offset="1" stop-color="#7B5CFF" stop-opacity="0.1"/>
</linearGradient>
<linearGradient id="paint3_linear_4108_1784" x1="-35.4689" y1="-357" x2="1235.59" y2="-357" gradientUnits="userSpaceOnUse">
<stop stop-color="#7B5CFF" stop-opacity="0.1"/>
<stop offset="0.494792" stop-color="#7B5CFF"/>
<stop offset="1" stop-color="#7B5CFF" stop-opacity="0.1"/>
</linearGradient>
</defs>
</svg>
